<svg width="16" height="15" viewBox="0 0 16 15" fill="none" xmlns="http://www.w3.org/2000/svg">
<path d="M1.00011 8H12.8601L9.23011 12.36C9.14606 12.4611 9.08275 12.5778 9.0438 12.7034C9.00485 12.829 8.99101 12.961 9.00309 13.0919C9.02747 13.3564 9.15589 13.6003 9.36011 13.77C9.56432 13.9397 9.8276 14.0214 10.092 13.997C10.3565 13.9726 10.6004 13.8442 10.7701 13.64L15.7701 7.64C15.8037 7.59228 15.8338 7.54214 15.8601 7.49C15.8601 7.44 15.9101 7.41 15.9301 7.36C15.9754 7.24534 15.9992 7.12329 16.0001 7C15.9992 6.87671 15.9754 6.75466 15.9301 6.64C15.9301 6.59 15.8801 6.56 15.8601 6.51C15.8338 6.45786 15.8037 6.40773 15.7701 6.36L10.7701 0.360002C10.6761 0.247119 10.5583 0.156339 10.4253 0.0941181C10.2922 0.0318971 10.147 -0.000236672 10.0001 1.91036e-06C9.76645 -0.000454603 9.54002 0.0809208 9.36011 0.230002C9.25885 0.313951 9.17515 0.417051 9.11379 0.533399C9.05244 0.649746 9.01465 0.777054 9.00257 0.908031C8.99049 1.03901 9.00438 1.17108 9.04342 1.29668C9.08247 1.42229 9.1459 1.53895 9.23011 1.64L12.8601 6H1.00011C0.73489 6 0.480537 6.10536 0.293 6.2929C0.105464 6.48043 0.000106812 6.73479 0.000106812 7C0.000106812 7.26522 0.105464 7.51957 0.293 7.70711C0.480537 7.89464 0.73489 8 1.00011 8Z" fill="#F2F2F2"/>
</svg>
