<svg width="40" height="40" viewBox="0 0 40 40" fill="none" xmlns="http://www.w3.org/2000/svg">
<g clip-path="url(#clip0)">
<path fill-rule="evenodd" clip-rule="evenodd" d="M7.8335 27.2208V34.316H9.62537C9.88967 34.316 10.1079 34.478 10.1079 34.6765V36.9487H16.4731V34.6765C16.4731 34.478 16.6913 34.316 16.9587 34.316H18.7506V27.2208H16.9587C16.6913 27.2208 16.4731 27.0588 16.4731 26.8626V24.588H10.1079V26.8626C10.1079 27.0587 9.88967 27.2208 9.62537 27.2208H7.8335Z" fill="#B6B1B7"/>
<path fill-rule="evenodd" clip-rule="evenodd" d="M20.9941 27.2208V34.316H22.8691C23.149 34.316 23.3773 34.478 23.3773 34.6765V36.9487H30.038V34.6765C30.038 34.478 30.2663 34.316 30.5461 34.316H32.4211V27.2208H30.5461C30.2662 27.2208 30.038 27.0588 30.038 26.8626V24.588H23.3773V26.8626C23.3773 27.0587 23.1489 27.2208 22.8691 27.2208H20.9941Z" fill="#B6B1B7"/>
<path fill-rule="evenodd" clip-rule="evenodd" d="M2.7135 11.8462V22.1232H37.2876V11.8462L19.9994 1.86499L2.7135 11.8462Z" fill="#ECEAEC"/>
<path fill-rule="evenodd" clip-rule="evenodd" d="M0.210761 13.0713C0.646464 13.8265 1.61834 14.0866 2.3735 13.6508L2.71342 13.4546L19.9993 3.47337L37.2874 13.4546L37.6273 13.6508C38.3801 14.0866 39.3543 13.8265 39.7878 13.0713C40.2235 12.3184 39.9635 11.3443 39.2083 10.9085L20.8685 0.320479C20.6176 0.174463 20.3096 0.10376 19.9993 0.10376C19.6913 0.10376 19.381 0.174463 19.1301 0.320479L0.790214 10.9085C0.0374014 11.3443 -0.224942 12.3184 0.210761 13.0713Z" fill="#003399"/>
<path fill-rule="evenodd" clip-rule="evenodd" d="M30.7604 26.0002H36.0714V35.5365H30.7604V26.0002Z" fill="#FF6600"/>
<path fill-rule="evenodd" clip-rule="evenodd" d="M17.3439 26.0002H22.6549V35.5365H17.3439V26.0002Z" fill="#FF6600"/>
<path fill-rule="evenodd" clip-rule="evenodd" d="M3.92712 26.0002H9.24041V35.5365H3.92712V26.0002Z" fill="#FF6600"/>
<path fill-rule="evenodd" clip-rule="evenodd" d="M2.23889 36.9487L6.13006 38.4225L10.9286 36.9487V34.6764C10.9286 34.4779 10.7666 34.3159 10.5704 34.3159H9.24038H3.92709H2.59709C2.40092 34.3159 2.23889 34.4779 2.23889 34.6764V36.9487Z" fill="#ECEAEC"/>
<path fill-rule="evenodd" clip-rule="evenodd" d="M29.0701 36.9487L33.7626 38.4225L37.762 36.9487V34.6764C37.762 34.4779 37.6001 34.3159 37.4016 34.3159H36.0716H30.7605H29.4305C29.2321 34.3159 29.0701 34.4779 29.0701 34.6764V36.9487Z" fill="#ECEAEC"/>
<path fill-rule="evenodd" clip-rule="evenodd" d="M15.6533 36.9487L20.0004 38.0013L24.3453 36.9487V34.6764C24.3453 34.4779 24.1833 34.3159 23.9848 34.3159H22.6548H17.3438H16.0138C15.8153 34.3159 15.6533 34.4779 15.6533 34.6764V36.9487Z" fill="#ECEAEC"/>
<path fill-rule="evenodd" clip-rule="evenodd" d="M0.370464 39.8963H39.6304C39.8334 39.8963 40 39.7297 40 39.5267V37.3182C40 37.1152 39.8334 36.9486 39.6304 36.9486H37.7619H29.07H24.3453H15.6533H10.9286H2.2389H0.370464C0.167417 36.9486 0.000854492 37.1152 0.000854492 37.3182V39.5267C0.000854492 39.7298 0.167417 39.8963 0.370464 39.8963Z" fill="#003399"/>
<path fill-rule="evenodd" clip-rule="evenodd" d="M18.1559 8.97391C18.1559 10.0416 19.0205 10.9063 20.0882 10.9063C21.1536 10.9063 22.0206 10.0416 22.0206 8.97391C22.0206 7.90625 21.1536 7.04156 20.0882 7.04156C19.0206 7.04149 18.1559 7.90617 18.1559 8.97391Z" fill="#FF6600"/>
<path fill-rule="evenodd" clip-rule="evenodd" d="M19.9994 3.47339L2.7135 13.4546V15.6996L19.9994 5.71831L37.2876 15.6996V13.4546L19.9994 3.47339Z" fill="#DAD8DB"/>
<path fill-rule="evenodd" clip-rule="evenodd" d="M20.0882 7.0415C19.0206 7.0415 18.1559 7.90619 18.1559 8.97385C18.1559 9.19518 18.1924 9.40502 18.2608 9.60354C18.546 8.894 19.2418 8.39439 20.0517 8.39439C20.8981 8.39439 21.6189 8.93963 21.879 9.69705C21.9703 9.47346 22.0205 9.22939 22.0205 8.97385C22.0206 7.90619 21.1536 7.0415 20.0882 7.0415Z" fill="#D55500"/>
<path fill-rule="evenodd" clip-rule="evenodd" d="M3.92712 27.2206H9.24041V29.1507H3.92712V27.2206Z" fill="#D55500"/>
<path fill-rule="evenodd" clip-rule="evenodd" d="M17.3439 27.2206H22.6549V29.1507H17.3439V27.2206Z" fill="#D55500"/>
<path fill-rule="evenodd" clip-rule="evenodd" d="M30.7604 27.2206H36.0714V29.1507H30.7604V27.2206Z" fill="#D55500"/>
<path fill-rule="evenodd" clip-rule="evenodd" d="M3.92709 27.2207H9.24038H10.5704C10.7665 27.2207 10.9286 27.0588 10.9286 26.8625V24.105H2.23889V26.8625C2.23889 27.0587 2.40084 27.2207 2.59709 27.2207H3.92709Z" fill="#ECEAEC"/>
<path fill-rule="evenodd" clip-rule="evenodd" d="M17.3439 27.2207H22.6549H23.9849C24.1834 27.2207 24.3453 27.0588 24.3453 26.8625V24.105H15.6533V26.8625C15.6533 27.0587 15.8153 27.2207 16.0138 27.2207H17.3439Z" fill="#ECEAEC"/>
<path fill-rule="evenodd" clip-rule="evenodd" d="M29.4305 27.2207H30.7605H36.0716H37.4016C37.6 27.2207 37.762 27.0588 37.762 26.8625V24.105H29.0701V26.8625C29.0701 27.0588 29.232 27.2207 29.4305 27.2207Z" fill="#ECEAEC"/>
<path fill-rule="evenodd" clip-rule="evenodd" d="M2.23889 24.588H10.9286V26.0001H2.23889V24.588Z" fill="#DAD8DB"/>
<path fill-rule="evenodd" clip-rule="evenodd" d="M15.6533 24.588H24.3453V26.0001H15.6533V24.588Z" fill="#DAD8DB"/>
<path fill-rule="evenodd" clip-rule="evenodd" d="M29.0701 24.588H37.762V26.0001H29.0701V24.588Z" fill="#DAD8DB"/>
<path fill-rule="evenodd" clip-rule="evenodd" d="M2.2389 24.588H10.9286H15.6533H24.3453H29.07H37.7619H39.6304C39.8334 24.588 40 24.4215 40 24.2184V22.01C40 21.8069 39.8334 21.6404 39.6304 21.6404H37.2874H2.71343H0.370464C0.167417 21.6404 0.000854492 21.8069 0.000854492 22.01V24.2184C0.000854492 24.4215 0.167417 24.588 0.370464 24.588H2.2389Z" fill="#003399"/>
<path d="M12.7186 15.9159C12.8843 15.6554 12.9816 15.3474 12.9816 15.0166C12.9816 14.089 12.2269 13.3343 11.2993 13.3343H9.9377C9.60426 13.3343 9.33411 13.6045 9.33411 13.9379V16.0964V16.0999V18.6255C9.33411 18.7861 9.39809 18.9401 9.51192 19.0533C9.62504 19.1659 9.77809 19.2291 9.93778 19.2291H9.94043C9.94043 19.2291 11.1922 19.2236 11.5372 19.2236C12.5657 19.2236 13.4025 18.3868 13.4025 17.3582C13.4025 16.7776 13.1358 16.2583 12.7186 15.9159ZM11.2993 14.5416C11.5613 14.5416 11.7743 14.7546 11.7743 15.0166C11.7743 15.2785 11.5613 15.4916 11.2993 15.4916C11.1997 15.4916 10.5414 15.4928 10.5414 15.4928V14.5416H11.2993ZM11.5372 18.0163C11.3535 18.0163 10.9137 18.0179 10.5414 18.0194V16.701C10.6304 16.7007 11.5372 16.7 11.5372 16.7C11.9 16.7 12.1953 16.9952 12.1953 17.3582C12.1953 17.7211 11.9 18.0163 11.5372 18.0163Z" fill="#6F6571"/>
<path d="M17.5911 13.7906C17.5891 13.7852 17.587 13.7798 17.5849 13.7744C17.4751 13.507 17.2174 13.3343 16.9283 13.3343C16.9282 13.3343 16.928 13.3343 16.9279 13.3343C16.6386 13.3344 16.3809 13.5076 16.2713 13.7753C16.2694 13.7798 16.2676 13.7844 16.2659 13.7891L14.5058 18.4107C14.3871 18.7223 14.5435 19.071 14.8551 19.1896C15.1662 19.3083 15.5153 19.1519 15.634 18.8404L15.9243 18.0781H17.9191L18.2061 18.8387C18.2973 19.0804 18.5271 19.2294 18.7709 19.2294C18.8417 19.2294 18.9138 19.2169 18.984 19.1904C19.2958 19.0726 19.4533 18.7244 19.3355 18.4125L17.5911 13.7906ZM16.3839 16.8709L16.9261 15.4473L17.4633 16.8709H16.3839Z" fill="#6F6571"/>
<path d="M24.475 13.3343C24.4731 13.3343 24.471 13.3343 24.4691 13.3344C24.1356 13.3376 23.8681 13.6105 23.8713 13.9437L23.8984 16.7427L21.7306 13.6037C21.5806 13.3862 21.3068 13.2919 21.0542 13.3704C20.8021 13.4491 20.6302 13.6825 20.6302 13.9466V18.6255C20.6302 18.9588 20.9005 19.2291 21.2338 19.2291C21.5672 19.2291 21.8374 18.9588 21.8374 18.6255V15.8829L23.9008 18.8708C24.0774 19.126 24.3724 19.2346 24.6523 19.1472C24.9377 19.058 25.1222 18.7912 25.1222 18.4616L25.0785 13.932C25.0752 13.6007 24.8056 13.3343 24.475 13.3343Z" fill="#6F6571"/>
<path d="M30.6199 18.1912L28.5115 16.157L30.4408 14.3837C30.6862 14.158 30.7023 13.7762 30.4767 13.5307C30.2512 13.2853 29.8692 13.2691 29.6238 13.4948L28.0828 14.9113V13.8793C28.0828 13.5459 27.8126 13.2757 27.4792 13.2757C27.1458 13.2757 26.8756 13.5459 26.8756 13.8793V18.6255C26.8756 18.9589 27.1458 19.2291 27.4792 19.2291C27.8126 19.2291 28.0828 18.9589 28.0828 18.6255V17.4209L29.7817 19.06C29.8988 19.173 30.0499 19.2292 30.2007 19.2292C30.3588 19.2292 30.5167 19.1675 30.6351 19.0447C30.8667 18.8048 30.8598 18.4226 30.6199 18.1912Z" fill="#6F6571"/>
</g>
<defs>
<clipPath id="clip0">
<rect width="40" height="40" fill="white"/>
</clipPath>
</defs>
</svg>
