<svg width="50" height="50" viewBox="0 0 50 50" fill="none" xmlns="http://www.w3.org/2000/svg">
<path d="M46.8883 18.6433C48.5042 18.6433 49.8188 17.3287 49.8188 15.7128V11.9184C49.8188 10.7152 49.0982 9.64881 47.9823 9.19976L26.0082 0.214807C25.2927 -0.073458 24.5183 -0.0683785 23.821 0.210704C23.8047 0.217249 24.1887 0.0602705 1.83645 9.19985C0.720613 9.64881 0 10.7153 0 11.9185V15.713C0 17.3289 1.31463 18.6435 2.93051 18.6435H4.68882V40.72H2.93051C1.31463 40.72 0 42.0347 0 43.6506V47.0695C0 48.6854 1.31463 50 2.93051 50H46.8882C48.5041 50 49.8187 48.6854 49.8187 47.0695V43.6506C49.8187 42.0347 48.5041 40.72 46.8882 40.72H45.1299V18.6435H46.8883V18.6433ZM46.8883 43.6504C46.8901 47.1475 46.8981 47.0693 46.8883 47.0693H2.93061V43.6504H46.8883ZM7.61943 40.7199V18.6433H10.9407V40.7199H7.61943ZM13.8712 40.7199V18.6433H20.3183V40.7199H13.8712ZM23.2488 40.7199V18.6433H26.5701V40.7199H23.2488ZM29.5006 40.7199V18.6433H35.9477V40.7199H29.5006ZM38.8782 40.7199V18.6433H42.1995V40.7199H38.8782ZM2.93061 15.7128C2.93061 11.6254 2.92621 11.9202 2.94087 11.9142L24.9094 2.93149L46.878 11.9142C46.8932 11.9202 46.8883 11.6351 46.8883 15.7128C46.4012 15.7128 3.50939 15.7128 2.93061 15.7128Z" fill="#7690C3"/>
<path d="M24.9095 6.33521C24.1003 6.33521 23.4442 6.99125 23.4442 7.80046V10.9263C23.4442 11.7356 24.1003 12.3916 24.9095 12.3916C25.7187 12.3916 26.3747 11.7356 26.3747 10.9263V7.80046C26.3747 6.99125 25.7187 6.33521 24.9095 6.33521V6.33521Z" fill="#7690C3"/>
</svg>
