<svg width="50" height="50" viewBox="0 0 50 50" fill="none" xmlns="http://www.w3.org/2000/svg">
<g id="bank-pay-ic">
<g id="Group">
<path id="Vector" d="M47.8413 35.607C47.1838 35.0206 46.3584 34.7503 45.5177 34.8468C44.1059 35.0083 42.2573 35.3896 40.3001 35.7932C37.6572 36.3384 34.9244 36.902 32.8321 37.0327C31.0247 37.1454 27.7333 36.6745 26.7581 36.1637C26.1004 35.8192 25.7324 35.3966 25.5263 35.023H29.5826C31.2561 35.023 32.6175 33.6617 32.6175 31.9883V29.6051C32.6175 27.9318 31.2561 26.5705 29.5826 26.5705H18.4636C17.9911 26.556 12.3181 26.4491 8.3895 29.8002C7.69418 30.3933 7.14117 30.9536 6.70017 31.4629C6.23365 30.8799 5.51677 30.5054 4.71369 30.5054H1.08902C0.48757 30.5054 0 30.9929 0 31.5944V46.9792C0 47.2681 0.114814 47.5451 0.318927 47.7493C0.523248 47.9535 0.800274 48.0683 1.08902 48.0683L4.71359 48.0682C6.11635 48.0682 7.25754 46.927 7.25754 45.5243V44.6873C8.34148 44.7554 10.798 45.0236 15.9968 45.9996C22.1361 47.1524 25.967 47.5431 28.9852 47.543C31.1483 47.543 32.8944 47.3424 34.7727 47.0779C37.0946 46.7511 40.0149 45.925 42.5915 45.1961C43.7842 44.8588 44.9108 44.5401 45.9077 44.2887C48.594 43.6112 48.9952 41.9173 48.9952 40.9677V38.1934C48.9952 37.2185 48.5637 36.2516 47.8413 35.607ZM5.0796 45.5243C5.0796 45.726 4.91542 45.8901 4.71369 45.8901L2.17804 45.8902V32.6835H4.71359C4.91532 32.6835 5.0795 32.8476 5.0795 33.0493V45.5243H5.0796ZM46.8172 40.9678C46.8172 41.1991 46.8172 41.8131 45.3752 42.1768C44.3481 42.4358 43.2069 42.7586 41.9987 43.1004C39.489 43.8103 36.6444 44.6149 34.4691 44.9211C30.1839 45.5245 26.611 45.7765 16.3987 43.8591C11.1466 42.873 8.53978 42.5749 7.25754 42.5066V34.4208C7.29643 34.3721 7.33242 34.3204 7.36343 34.2638C7.64243 33.7548 8.33038 32.7134 9.80294 31.4574C13.1605 28.5935 18.3512 28.746 18.4024 28.7478C18.4165 28.7483 18.4306 28.7486 18.4447 28.7486H29.5828C30.0552 28.7486 30.4396 29.1329 30.4396 29.6052V31.9884C30.4396 32.4608 30.0552 32.8451 29.5828 32.8451H18.4447C17.8432 32.8451 17.3557 33.3327 17.3557 33.9341C17.3557 34.5356 17.8432 35.0231 18.4447 35.0231H23.2132C23.4372 35.9161 24.055 37.2066 25.7475 38.0931C27.2955 38.9041 31.135 39.3218 32.9678 39.2066C35.2137 39.0664 38.0232 38.487 40.7401 37.9265C42.6481 37.5329 44.4503 37.1611 45.7653 37.0108C46.0424 36.9794 46.2585 37.1138 46.3914 37.2324C46.654 37.4667 46.8173 37.8351 46.8173 38.1936V40.9678H46.8172Z" fill="#7690C3"/>
<path id="Vector_2" d="M47.2072 1.9317H8.95718C7.4172 1.9317 6.16431 3.18459 6.16431 4.72457V22.6568C6.16431 24.1969 7.4172 25.4499 8.95718 25.4499H47.2072C48.7472 25.4499 50 24.1969 50 22.6568V4.72447C50 3.18459 48.7472 1.9317 47.2072 1.9317ZM41.8046 23.2717H14.362C14.0735 20.0248 11.549 17.4128 8.34245 16.9883V10.096C11.4505 9.68448 13.9173 7.2177 14.3287 4.10964H41.8379C42.2493 7.21708 44.715 9.68345 47.822 10.0958V16.9885C44.6166 17.4139 42.0931 20.0256 41.8046 23.2717ZM47.822 4.72447V7.89071C45.9179 7.51827 44.4145 6.01418 44.0428 4.10964H47.2072C47.5462 4.10974 47.822 4.38552 47.822 4.72447ZM8.95718 4.10974H12.1237C11.752 6.01501 10.2476 7.51941 8.34235 7.89123V4.72447C8.34245 4.38552 8.61823 4.10974 8.95718 4.10974ZM8.34245 22.6568V19.1932C10.3456 19.5841 11.9053 21.2272 12.1715 23.2717H8.95718C8.61823 23.2717 8.34245 22.9958 8.34245 22.6568ZM47.2072 23.2717H43.9951C44.2612 21.2279 45.8198 19.5851 47.8219 19.1936V22.6568C47.822 22.9958 47.5462 23.2717 47.2072 23.2717Z" fill="#7690C3"/>
<path id="Vector_3" d="M28.1408 5.89978C23.8448 5.89978 20.3497 9.3947 20.3497 13.6906C20.3497 17.9867 23.8448 21.4817 28.1408 21.4817C32.4367 21.4817 35.9317 17.9867 35.9317 13.6906C35.9317 9.39481 32.4367 5.89978 28.1408 5.89978ZM28.1408 19.3037C25.0457 19.3037 22.5278 16.7858 22.5278 13.6907C22.5278 10.5958 25.0457 8.07792 28.1408 8.07792C31.2358 8.07792 33.7537 10.5958 33.7537 13.6907C33.7537 16.7857 31.2358 19.3037 28.1408 19.3037Z" fill="#7690C3"/>
<path id="Vector_4" d="M15.603 10.341C13.7558 10.341 12.2532 11.8436 12.2532 13.6908C12.2532 15.5379 13.7558 17.0405 15.603 17.0405C17.4501 17.0405 18.9527 15.5379 18.9527 13.6908C18.9527 11.8436 17.4501 10.341 15.603 10.341ZM15.603 14.8624C14.9569 14.8624 14.4312 14.3369 14.4312 13.6907C14.4312 13.0446 14.9568 12.5189 15.603 12.5189C16.2491 12.5189 16.7747 13.0446 16.7747 13.6907C16.7747 14.3369 16.2491 14.8624 15.603 14.8624Z" fill="#7690C3"/>
<path id="Vector_5" d="M40.6785 10.341C38.8314 10.341 37.3287 11.8436 37.3287 13.6908C37.3287 15.5379 38.8314 17.0405 40.6785 17.0405C42.5256 17.0405 44.0284 15.5379 44.0284 13.6908C44.0284 11.8436 42.5256 10.341 40.6785 10.341ZM40.6785 14.8624C40.0323 14.8624 39.5068 14.3369 39.5068 13.6907C39.5068 13.0446 40.0323 12.5189 40.6785 12.5189C41.3246 12.5189 41.8503 13.0446 41.8503 13.6907C41.8503 14.3369 41.3247 14.8624 40.6785 14.8624Z" fill="#7690C3"/>
</g>
</g>
</svg>
