<svg width="40" height="40" viewBox="0 0 40 40" fill="none" xmlns="http://www.w3.org/2000/svg">
<path d="M26.8966 4.13794H40.0001V30.3448H26.8966V4.13794Z" fill="#1F9342"/>
<path d="M24.1379 6.89655H37.2414V33.1034H24.1379V6.89655Z" fill="#2CB357"/>
<path d="M26.8966 11.0345V28.9655C27.6584 28.9655 28.2759 29.583 28.2759 30.3448H33.1035C33.1035 29.583 33.721 28.9655 34.4828 28.9655V11.0345C33.721 11.0345 33.1035 10.417 33.1035 9.65515H28.2759C28.2759 10.417 27.6584 11.0345 26.8966 11.0345Z" fill="#1F9342"/>
<path d="M9.65515 17.931H18.6207L24.1379 15.1724V17.931H36.5517C37.6944 17.931 38.6207 18.8573 38.6207 20C38.6207 21.1427 37.6944 22.069 36.5517 22.069H35.1724C36.3151 22.069 37.2414 22.9953 37.2414 24.1379C37.2414 25.2806 36.3151 26.2069 35.1724 26.2069H33.7931C34.9358 26.2069 35.862 27.1332 35.862 28.2759C35.862 29.4185 34.9358 30.3448 33.7931 30.3448H32.4138C33.5564 30.3448 34.4827 31.2711 34.4827 32.4138C34.4827 33.5565 33.5564 34.4828 32.4138 34.4828H22.0689L9.65515 32.4138V17.931Z" fill="#F2CBA7"/>
<path d="M0 17.931H13.7931V35.8621H0V17.931Z" fill="#003399"/>
<path d="M8.96557 33.1035C10.1082 33.1035 11.0345 32.1771 11.0345 31.0345C11.0345 29.8918 10.1082 28.9655 8.96557 28.9655C7.82291 28.9655 6.89661 29.8918 6.89661 31.0345C6.89661 32.1771 7.82291 33.1035 8.96557 33.1035Z" fill="#FF6600"/>
<path d="M34.4827 32.4138H27.5862C26.4435 32.4138 25.5172 33.3401 25.5172 34.4828H32.4138C33.5564 34.4828 34.4827 33.5565 34.4827 32.4138Z" fill="#E1B494"/>
<path d="M35.862 28.2759H28.9654C27.8228 28.2759 26.8965 29.2022 26.8965 30.3448H33.793C34.9357 30.3448 35.862 29.4186 35.862 28.2759Z" fill="#E1B494"/>
<path d="M37.2414 24.1379H30.3448C29.2022 24.1379 28.2759 25.0642 28.2759 26.2069H35.1724C36.3151 26.2069 37.2414 25.2806 37.2414 24.1379Z" fill="#E1B494"/>
<path d="M38.6207 20H31.7241C30.5814 20 29.6552 20.9263 29.6552 22.069H36.5517C37.6944 22.069 38.6207 21.1427 38.6207 20Z" fill="#E1B494"/>
</svg>
