<svg width="53" height="42" viewBox="0 0 53 42" fill="none" xmlns="http://www.w3.org/2000/svg">
<path d="M15.0808 0.0223023C13.5738 0.0446107 12.4136 0.1298 11.3386 0.296125C7.64298 0.866083 5.56598 2.31227 5.04268 4.67932C5.02442 4.76046 3.89668 12.0522 2.53364 20.8856C1.17264 29.7189 0.0489523 37.0006 0.0388107 37.0675C0.0124426 37.2359 0.0144709 37.7308 0.040839 37.9113C0.150368 38.6293 0.497211 39.2804 1.08745 39.8686C2.12798 40.9071 3.96767 41.684 5.79113 41.8564C6.07712 41.8827 7.89449 41.8848 20.9528 41.8807L35.79 41.8746L36.1044 41.828C37.2341 41.6637 38.228 41.3533 39.4349 40.7895C40.662 40.2134 41.4835 39.6313 42.0839 38.9133C42.5098 38.4042 42.8181 37.7794 42.9378 37.175C42.9702 37.0209 43.8728 30.9927 43.8728 30.9399C43.8728 30.9359 41.3273 30.9318 38.2179 30.9318H32.5629L32.3094 32.4287L32.0558 33.9236L22.0217 33.9297C13.0992 33.9337 11.9876 33.9297 11.9876 33.9033C11.9876 33.8871 12.8456 28.1165 13.8943 21.0783C14.9429 14.042 15.811 8.21468 15.8232 8.12746L15.8455 7.97129H25.9141H35.9827L35.9705 8.02605C35.9644 8.0585 35.8569 8.71162 35.7312 9.48238L35.502 10.8819L36.7311 10.8941C37.4065 10.9001 39.9785 10.9083 42.4469 10.9103L46.9315 10.9123L46.9437 10.8555C46.9741 10.7034 47.5826 6.62854 47.7368 5.54744C47.893 4.44606 47.897 4.40753 47.8828 4.11951C47.822 2.88426 46.9802 1.8559 45.3839 1.05877C44.1609 0.448247 42.8303 0.0953194 41.4693 0.0202729C41.0494 -0.00203926 16.5534 -0.00203926 15.0808 0.0223023Z" fill="#FF6600"/>
<path d="M35.7657 13.5573C34.5588 13.6344 33.3743 14.0928 32.4088 14.8575C32.139 15.0684 31.6543 15.5552 31.4393 15.827C30.6584 16.8128 30.2203 17.9547 30.1371 19.2184C30.1107 19.618 30.1229 19.7458 30.2101 19.9344C30.3115 20.1555 30.5428 20.338 30.7902 20.3908C30.8734 20.407 33.0051 20.411 39.4004 20.407C47.3839 20.4009 47.9133 20.3968 48.1324 20.3644C49.396 20.1717 50.4751 19.6322 51.3493 18.76C52.3553 17.7539 52.9232 16.4599 52.9922 15.0218C53.0044 14.7987 52.9983 14.7074 52.9719 14.5695C52.8746 14.0888 52.5399 13.7277 52.0571 13.5817C51.9415 13.5472 51.5683 13.5452 43.9743 13.5431C39.5952 13.5411 35.9016 13.5472 35.7657 13.5573Z" fill="#003399"/>
<path d="M31.0941 23.0823C29.1814 23.1858 27.5365 24.4494 26.9341 26.2789C26.7414 26.8631 26.6542 27.6562 26.7535 27.9219C26.8124 28.076 26.9138 28.1856 27.074 28.2647L27.2099 28.3316H33.7411C40.5806 28.3316 40.3615 28.3336 40.7895 28.2484C41.9396 28.0152 42.9659 27.2951 43.5967 26.2769C43.972 25.6684 44.1809 24.9889 44.2275 24.2141C44.2498 23.8531 44.1626 23.5833 43.9517 23.3683C43.8137 23.2283 43.6028 23.1208 43.406 23.0884C43.3168 23.0762 41.2966 23.0701 37.24 23.0722C33.9216 23.0742 31.155 23.0783 31.0941 23.0823Z" fill="#003399"/>
</svg>
