<svg width="50" height="35" viewBox="0 0 50 35" fill="none" xmlns="http://www.w3.org/2000/svg">
<g id="card-ic">
<path id="Vector" d="M44.5312 0.444946H5.46875C2.45332 0.444946 0 2.84211 0 5.78852V28.6896C0 31.636 2.45332 34.0331 5.46875 34.0331H44.5312C47.5467 34.0331 50 31.636 50 28.6896V5.78852C50 2.84211 47.5467 0.444946 44.5312 0.444946ZM5.46875 3.49842H44.5312C45.8235 3.49842 46.875 4.52581 46.875 5.78852V8.84199H3.125V5.78852C3.125 4.52581 4.17646 3.49842 5.46875 3.49842ZM44.5312 30.9797H5.46875C4.17646 30.9797 3.125 29.9523 3.125 28.6896V11.8955H46.875V28.6896C46.875 29.9523 45.8235 30.9797 44.5312 30.9797Z" fill="#7690C3"/>
<path id="Vector_2" d="M10.9375 26.3995H9.375C8.51211 26.3995 7.8125 25.7159 7.8125 24.8727V23.346C7.8125 22.5028 8.51211 21.8192 9.375 21.8192H10.9375C11.8004 21.8192 12.5 22.5028 12.5 23.346V24.8727C12.5 25.7159 11.8004 26.3995 10.9375 26.3995Z" fill="#7690C3"/>
</g>
</svg>
