<svg width="40" height="40" viewBox="0 0 40 40" fill="none" xmlns="http://www.w3.org/2000/svg">
<g clip-path="url(#clip0)">
<path d="M37.5845 11.4145L30.3652 4.18152V33.1663H40.0268V17.2873C40.0268 15.0825 39.1475 12.9688 37.5845 11.4145Z" fill="#FFB782"/>
<path d="M5.64279 27.8848L0.185168 13.7167C-0.362601 12.2945 0.346013 10.6968 1.76905 10.1488L27.529 0.226367C28.9512 -0.321402 30.5489 0.387212 31.0966 1.81025L36.5542 15.9783C37.102 17.4005 36.3934 18.9982 34.9704 19.5462L9.21121 29.4686C7.78817 30.0164 6.19135 29.307 5.64279 27.8848Z" fill="#DE4C3C"/>
<path d="M33.0634 6.91425L2.17676 18.8865L4.2334 24.2252L35.1214 12.2586L33.0634 6.91425Z" fill="#7A4930"/>
<path d="M0.000244141 17.9837V2.80121C0.000244141 1.27676 1.23629 0.0407104 2.76075 0.0407104H30.3653C31.8897 0.0407104 33.1258 1.27676 33.1258 2.80121V17.9837C33.1258 19.5082 31.8897 20.7442 30.3653 20.7442H2.76075C1.23629 20.7442 0.000244141 19.5082 0.000244141 17.9837Z" fill="#4398D1"/>
<path d="M30.3653 0.0407715H27.4323L6.72876 20.7443H30.3653C31.8897 20.7443 33.1258 19.5082 33.1258 17.9838V2.80127C33.1258 1.27682 31.8897 0.0407715 30.3653 0.0407715Z" fill="#3E8CC7"/>
<path d="M2.76074 11.0825H5.52125V12.4628H2.76074V11.0825Z" fill="#5EB3D1"/>
<path d="M2.76074 15.2232H5.52125V16.6035H2.76074V15.2232Z" fill="#5EB3D1"/>
<path d="M15.1827 15.2232H17.9432V16.6035H15.1827V15.2232Z" fill="#5EB3D1"/>
<path d="M6.90161 11.0825H9.66185V12.4628H6.90161V11.0825Z" fill="#5EB3D1"/>
<path d="M11.042 11.0825H13.8025V12.4628H11.042V11.0825Z" fill="#5EB3D1"/>
<path d="M15.1827 11.0825H17.9432V12.4628H15.1827V11.0825Z" fill="#5EB3D1"/>
<path d="M28.2949 2.80121H29.6752V4.87159H28.2949V2.80121Z" fill="#5EB3D1"/>
<path d="M25.5344 2.80121H26.9147V4.87159H25.5344V2.80121Z" fill="#5EB3D1"/>
<path d="M22.7739 2.80121H24.1542V4.87159H22.7739V2.80121Z" fill="#5EB3D1"/>
<path d="M20.0137 2.80121H21.3937V4.87159H20.0137V2.80121Z" fill="#5EB3D1"/>
<path d="M27.6049 33.1663H40.0269V40.0672H27.6049V33.1663Z" fill="#003399"/>
<path d="M25.5795 12.5077C24.4089 11.3414 22.5147 11.3448 21.3484 12.5154C20.2206 13.6471 20.1815 15.4655 21.2594 16.645L26.9148 22.8147C25.215 25.7896 25.2876 29.4582 27.1031 32.3637L27.605 33.1663H36.5763V23.5048L25.5795 12.5077Z" fill="#FFB782"/>
<path d="M29.6752 35.2366H31.0554V36.6169H29.6752V35.2366Z" fill="#FF6600"/>
<path d="M2.76074 7.21796V3.90546C2.76074 3.29536 3.2549 2.80121 3.865 2.80121H7.17751C7.78761 2.80121 8.2815 3.29536 8.2815 3.90546V7.21796C8.2815 7.82806 7.78761 8.32222 7.17751 8.32222H3.865C3.2549 8.32222 2.76074 7.82806 2.76074 7.21796Z" fill="#FDB62F"/>
<path d="M2.76074 4.8717H4.83112V6.25196H2.76074V4.8717Z" fill="#FD7B2F"/>
<path d="M6.21143 4.8717H8.28154V6.25196H6.21143V4.8717Z" fill="#FD7B2F"/>
<path d="M35.886 23.5047C35.7033 23.5047 35.5274 23.4321 35.3982 23.3024L32.6377 20.5419C32.3728 20.268 32.3805 19.8312 32.6551 19.566C32.9229 19.308 33.3466 19.308 33.6136 19.566L36.3741 22.3265C36.6433 22.5965 36.6433 23.0333 36.3741 23.3024C36.2442 23.4321 36.0691 23.5047 35.886 23.5047Z" fill="#F2A46F"/>
</g>
<defs>
<clipPath id="clip0">
<rect width="40" height="40" fill="white"/>
</clipPath>
</defs>
</svg>
