<svg width="500" height="334" viewBox="0 0 500 334" fill="none" xmlns="http://www.w3.org/2000/svg">
<path d="M135.873 115.798H59.5886C57.9606 115.798 56.6406 114.478 56.6406 112.85C56.6406 111.222 57.9606 109.902 59.5886 109.902H135.873C137.501 109.902 138.821 111.222 138.821 112.85C138.821 114.478 137.501 115.798 135.873 115.798Z" fill="#FF6600" fill-opacity="0.28"/>
<path d="M276.349 36.9886H226.65C224.983 36.9886 223.633 35.6373 223.633 33.9706C223.633 32.304 224.983 30.9526 226.65 30.9526H276.349C278.016 30.9526 279.366 32.304 279.366 33.9706C279.366 35.6373 278.016 36.9886 276.349 36.9886Z" fill="#FF6600" fill-opacity="0.28"/>
<path d="M93.5091 154.708H84.7391C82.4344 154.708 80.5664 152.84 80.5664 150.535V142.303C80.5664 139.998 82.4344 138.13 84.7391 138.13H93.5091C95.8131 138.13 97.6811 139.998 97.6811 142.303V150.535C97.6811 152.84 95.8131 154.708 93.5091 154.708Z" fill="#003399"/>
<path opacity="0.75" d="M348.613 300.892H343.829C342.572 300.892 341.553 299.873 341.553 298.615V294.124C341.553 292.867 342.572 291.847 343.829 291.847H348.613C349.871 291.847 350.891 292.867 350.891 294.124V298.615C350.891 299.873 349.871 300.892 348.613 300.892Z" fill="#FF6600"/>
<path d="M434.552 109.088H429.767C428.51 109.088 427.49 108.07 427.49 106.812V102.321C427.49 101.064 428.51 100.044 429.767 100.044H434.552C435.809 100.044 436.828 101.064 436.828 102.321V106.812C436.828 108.07 435.809 109.088 434.552 109.088Z" fill="#003399"/>
<path opacity="0.75" d="M184.113 299.936H155.884C153.794 299.936 152.1 298.242 152.1 296.152C152.1 294.061 153.794 292.366 155.884 292.366H184.113C186.203 292.366 187.898 294.061 187.898 296.152C187.898 298.242 186.203 299.936 184.113 299.936Z" fill="#FF6600"/>
<path d="M365.162 273.111H137.824C135.191 273.111 133.057 270.977 133.057 268.344V78.9939C133.057 76.3613 135.191 74.2266 137.824 74.2266H365.162C367.795 74.2266 369.929 76.3613 369.929 78.9939V268.344C369.929 270.977 367.795 273.111 365.162 273.111Z" fill="#FF6600" fill-opacity="0.43"/>
<path d="M133.057 98.1524H369.929" stroke="#FCFBEE" stroke-width="0.00258667" stroke-miterlimit="2"/>
<path fill-rule="evenodd" clip-rule="evenodd" d="M365.162 273.111H137.824C135.191 273.111 133.057 270.977 133.057 268.344V78.9939C133.057 76.3613 135.191 74.2266 137.824 74.2266H365.162C367.795 74.2266 369.929 76.3613 369.929 78.9939V268.344C369.929 270.977 367.795 273.111 365.162 273.111Z" stroke="#FCFBEE" stroke-width="0.00258667" stroke-miterlimit="2"/>
<path fill-rule="evenodd" clip-rule="evenodd" d="M156.337 86.4465C156.337 88.2905 154.842 89.7858 152.998 89.7858C151.154 89.7858 149.658 88.2905 149.658 86.4465C149.658 84.6018 151.154 83.1072 152.998 83.1072C154.842 83.1072 156.337 84.6018 156.337 86.4465Z" stroke="#FCFBEE" stroke-width="0.00258667" stroke-miterlimit="2"/>
<path fill-rule="evenodd" clip-rule="evenodd" d="M169.52 86.4465C169.52 88.2905 168.026 89.7858 166.181 89.7858C164.337 89.7858 162.842 88.2905 162.842 86.4465C162.842 84.6018 164.337 83.1072 166.181 83.1072C168.026 83.1072 169.52 84.6018 169.52 86.4465Z" stroke="#FCFBEE" stroke-width="0.00258667" stroke-miterlimit="2"/>
<path fill-rule="evenodd" clip-rule="evenodd" d="M182.46 86.4465C182.46 88.2905 180.965 89.7858 179.12 89.7858C177.276 89.7858 175.781 88.2905 175.781 86.4465C175.781 84.6018 177.276 83.1072 179.12 83.1072C180.965 83.1072 182.46 84.6018 182.46 86.4465Z" stroke="#FCFBEE" stroke-width="0.00258667" stroke-miterlimit="2"/>
<path d="M182.202 237.268H61.8336C58.0216 237.268 54.9316 234.178 54.9316 230.365V185.743C54.9316 181.931 58.0216 178.841 61.8336 178.841H182.202C186.015 178.841 189.105 181.931 189.105 185.743V230.365C189.105 234.178 186.015 237.268 182.202 237.268Z" fill="#FF6600" fill-opacity="0.28"/>
<path fill-rule="evenodd" clip-rule="evenodd" d="M71.2434 189.713C71.2434 191.116 70.1061 192.253 68.7028 192.253C67.2994 192.253 66.1621 191.116 66.1621 189.713C66.1621 188.309 67.2994 187.172 68.7028 187.172C70.1061 187.172 71.2434 188.309 71.2434 189.713Z" stroke="#FCFBEE" stroke-width="0.00197333" stroke-miterlimit="2"/>
<path fill-rule="evenodd" clip-rule="evenodd" d="M81.0084 189.713C81.0084 191.116 79.8711 192.253 78.4677 192.253C77.0651 192.253 75.9277 191.116 75.9277 189.713C75.9277 188.309 77.0651 187.172 78.4677 187.172C79.8711 187.172 81.0084 188.309 81.0084 189.713Z" stroke="#FCFBEE" stroke-width="0.00197333" stroke-miterlimit="2"/>
<path fill-rule="evenodd" clip-rule="evenodd" d="M91.0188 189.713C91.0188 191.116 89.8815 192.253 88.4782 192.253C87.0748 192.253 85.9375 191.116 85.9375 189.713C85.9375 188.309 87.0748 187.172 88.4782 187.172C89.8815 187.172 91.0188 188.309 91.0188 189.713Z" stroke="#FCFBEE" stroke-width="0.00197333" stroke-miterlimit="2"/>
<path d="M54.9316 199.318H189.105" stroke="#FCFBEE" stroke-width="0.00197333" stroke-miterlimit="2"/>
<path d="M398.585 104.685H344.586C340.079 104.685 336.426 101.032 336.426 96.525V52.9676C336.426 48.461 340.079 44.8076 344.586 44.8076H398.585C403.091 44.8076 406.745 48.461 406.745 52.9676V96.525C406.745 101.032 403.091 104.685 398.585 104.685Z" fill="#FF6600" fill-opacity="0.28"/>
<path d="M367.131 60.0121C361.949 60.0121 357.734 64.2275 357.734 69.4095C357.734 74.5915 361.949 78.8075 367.131 78.8075C372.314 78.8075 376.529 74.5915 376.529 69.4095C376.529 64.2275 372.314 60.0121 367.131 60.0121ZM367.131 81.5608C360.431 81.5608 354.98 76.1101 354.98 69.4095C354.98 62.7095 360.431 57.2588 367.131 57.2588C373.831 57.2588 379.282 62.7095 379.282 69.4095C379.282 76.1101 373.831 81.5608 367.131 81.5608Z" fill="#FCFBEE"/>
<path d="M377.367 81.5916L373.779 78.0043L375.727 76.0576L379.313 79.6443L377.367 81.5916Z" fill="#FCFBEE"/>
<path d="M381.091 79.155L388.191 86.2544C388.943 87.0077 388.943 88.2284 388.191 88.9811L386.611 90.5604C385.859 91.3131 384.638 91.3131 383.885 90.5604L376.785 83.4604C376.033 82.7077 376.033 81.487 376.785 80.7344L378.365 79.155C379.118 78.4024 380.339 78.4024 381.091 79.155Z" fill="#FCFBEE"/>
<path d="M112.478 85.9101H81.4428C76.2402 85.9101 72.0215 81.6915 72.0215 76.4881V50.1708C72.0215 44.9675 76.2402 40.7488 81.4428 40.7488H112.478C117.681 40.7488 121.899 44.9675 121.899 50.1708V76.4881C121.899 81.6915 117.681 85.9101 112.478 85.9101Z" fill="#003399"/>
<path d="M96.9918 55.0942C92.9165 55.0942 89.6011 58.4096 89.6011 62.4849C89.6011 66.5603 92.9165 69.8749 96.9918 69.8749C101.067 69.8749 104.382 66.5603 104.382 62.4849C104.382 58.4096 101.067 55.0942 96.9918 55.0942ZM96.9918 73.0503C91.1658 73.0503 86.4258 68.3103 86.4258 62.4849C86.4258 56.6582 91.1658 51.9182 96.9918 51.9182C102.818 51.9182 107.558 56.6582 107.558 62.4849C107.558 68.3103 102.818 73.0503 96.9918 73.0503Z" fill="#FCFBEE"/>
<path d="M103.181 55.1225L91.0645 69.9032" stroke="#FCFBEE" stroke-width="0.00602667" stroke-miterlimit="2"/>
<path d="M444.368 244.79H331.939C327.136 244.79 323.242 240.896 323.242 236.092V152.199C323.242 147.395 327.136 143.501 331.939 143.501H444.368C449.171 143.501 453.065 147.395 453.065 152.199V236.092C453.065 240.896 449.171 244.79 444.368 244.79Z" fill="#003399"/>
<path fill-rule="evenodd" clip-rule="evenodd" d="M339.15 153.073C339.15 154.432 338.049 155.533 336.689 155.533C335.331 155.533 334.229 154.432 334.229 153.073C334.229 151.713 335.331 150.612 336.689 150.612C338.049 150.612 339.15 151.713 339.15 153.073Z" stroke="#FCFBEE" stroke-width="0.00190667" stroke-miterlimit="2"/>
<path fill-rule="evenodd" clip-rule="evenodd" d="M348.671 153.073C348.671 154.432 347.57 155.533 346.211 155.533C344.852 155.533 343.75 154.432 343.75 153.073C343.75 151.713 344.852 150.612 346.211 150.612C347.57 150.612 348.671 151.713 348.671 153.073Z" stroke="#FCFBEE" stroke-width="0.00190667" stroke-miterlimit="2"/>
<path fill-rule="evenodd" clip-rule="evenodd" d="M358.193 153.073C358.193 154.432 357.091 155.533 355.731 155.533C354.373 155.533 353.271 154.432 353.271 153.073C353.271 151.713 354.373 150.612 355.731 150.612C357.091 150.612 358.193 151.713 358.193 153.073Z" stroke="#FCFBEE" stroke-width="0.00190667" stroke-miterlimit="2"/>
<path d="M323.242 163.338H453.065" stroke="#FCFBEE" stroke-width="0.00190667" stroke-miterlimit="2"/>
<path d="M263.767 202.406L263.272 195.717L221.575 197.767V204.222C221.575 204.222 212.197 213.144 208.496 272.506H283.553C283.553 272.506 291.787 219.97 263.767 202.406Z" fill="#003399"/>
<path d="M221.68 204.217L263.872 202.4" stroke="#0A050B" stroke-width="0.00206667" stroke-miterlimit="2"/>
<path d="M230.225 231.575L238.868 235.095L243.495 272.489" stroke="#0A050B" stroke-width="0.00206667" stroke-miterlimit="2"/>
<path d="M176.113 189.463L187.632 151.436L212.97 160.934L200.813 197.352C198.322 204.874 189.726 208.423 182.655 204.848C177.018 201.997 174.254 195.499 176.113 189.463Z" fill="#EB6459"/>
<path d="M193.751 131.144C196.033 123.731 203.991 119.673 211.331 122.179C218.467 124.617 222.308 132.349 219.937 139.508L212.838 160.95L187.5 151.452L193.751 131.144Z" fill="#FCFBEE"/>
<path d="M195.574 186.618L166.635 131.746C166.635 131.746 167.296 121.832 150.826 121.24L150.83 121.254C150.606 121.244 150.382 121.224 150.158 121.224H144.653C143.629 121.224 142.699 121.944 142.559 122.957C142.396 124.128 143.217 125.138 144.32 125.276L149.873 126.06L142.319 128.076L140.909 128.597L130.622 121.8C129.803 121.216 128.656 121.486 128.183 122.374C127.811 123.07 127.977 123.932 128.584 124.438C129.219 124.967 130.241 125.844 131.354 126.806L129.083 125.446C128.22 124.929 127.099 125.289 126.697 126.212C126.383 126.936 126.618 127.782 127.263 128.238C127.817 128.63 128.531 129.132 129.29 129.666L128.501 129.358C127.636 129.02 126.611 129.264 126.083 130.028C125.366 131.068 125.796 132.478 126.937 132.956L138.177 137.661C140.117 138.473 141.972 138.98 144.255 138.439L154.275 136.077L176.696 198.834L195.574 186.618Z" fill="#EB6459"/>
<path d="M183.838 164.101L189.193 174.256" stroke="#D2504E" stroke-width="0.002" stroke-miterlimit="2"/>
<path d="M216.498 121.559L205.741 122.364C205.741 122.364 190.164 143.493 221.785 197.755L263.482 195.705L266.624 137.242L261.476 120.644H242.793L216.498 121.559Z" fill="#FCFBEE"/>
<path d="M204.17 157.649C204.17 157.649 201.067 151.123 203.061 136.666" stroke="#FDDDD6" stroke-width="0.00206667" stroke-miterlimit="2"/>
<path d="M300.87 181.826L283.553 146.065L260.01 159.404L277.705 193.476C281.34 200.518 290.384 202.68 296.811 198.045C301.934 194.349 303.648 187.499 300.87 181.826Z" fill="#EB6459"/>
<path d="M274.384 127.004C270.972 120.039 262.477 117.273 255.62 120.895C248.951 124.417 246.366 132.654 249.825 139.355L260.186 159.425L283.729 146.086L274.384 127.004Z" fill="#FCFBEE"/>
<path d="M260.02 159.401L251.465 142.83" stroke="#FDDDD6" stroke-width="0.00206667" stroke-miterlimit="2"/>
<path d="M337.165 120.659C336.638 119.895 335.613 119.652 334.748 119.989L329.718 121.952L334.443 117.955C335.225 117.292 335.445 116.123 334.854 115.286C334.175 114.327 332.876 114.18 332.011 114.877L327.615 118.416L331.362 113.517C331.985 112.702 331.949 111.513 331.192 110.822C330.325 110.03 329.023 110.166 328.329 111.031L320.93 118.708L313.376 116.692L318.929 115.906C320.031 115.769 320.853 114.76 320.69 113.588C320.55 112.574 319.619 111.855 318.597 111.855H313.091C309.84 111.855 306.665 112.99 304.259 115.15C304.218 115.181 304.182 115.202 304.14 115.235C300.762 117.899 301.991 123.359 301.991 123.359L281.25 182.078L301.805 191.195L313.655 128.138L321.223 128.152C321.692 128.196 322.164 128.194 322.634 128.154L322.691 128.155L322.687 128.152C323.5 128.078 324.305 127.886 325.072 127.566L336.313 123.587C337.453 123.11 337.883 121.698 337.165 120.659Z" fill="#EB6459"/>
<path d="M289.147 157.662L284.668 173.298" stroke="#D2504E" stroke-width="0.002" stroke-miterlimit="2"/>
<path d="M215.51 73.1169C214.214 74.0063 205.52 76.2656 205.348 77.8429C205.348 77.8429 208.208 89.023 205.279 91.109C197.36 96.7496 194.824 107.808 194.824 107.808C194.824 107.808 215.716 123.452 271.252 107.026C271.252 107.026 271.916 100.374 261.816 95.5443C258.932 94.1656 256.37 92.0876 254.75 89.2663C253.496 87.0809 253.305 86.1536 252.972 84.193C252.042 78.7096 236.912 58.4343 215.51 73.1169Z" fill="#0A050B"/>
<path d="M216.429 89.8847C216.683 93.554 213.916 96.7354 210.247 96.9907C206.578 97.246 203.397 94.478 203.141 90.8093C202.886 87.14 205.653 83.9587 209.323 83.7033C212.991 83.448 216.173 86.216 216.429 89.8847Z" fill="#D2504E"/>
<path d="M219.482 106.184L220.403 120.668C220.716 125.756 222.796 129.221 227.8 128.873C232.072 128.576 237.155 125.153 237.39 120.877L234.843 98.1524L219.482 106.184Z" fill="#EB6459"/>
<path d="M216.323 121.559L242.619 120.644C242.619 120.644 241.98 133.573 226.351 132.362C215.487 131.521 216.323 121.559 216.323 121.559Z" fill="#EB6459"/>
<path d="M220.121 118.124L236.928 101.692L219.238 104.71L220.121 118.124Z" fill="#D2504E"/>
<path d="M223.915 108.531C215.357 108.557 208.291 101.818 208.035 94.8306L207.531 78.3399C207.211 69.5825 213.895 62.1492 222.637 61.5412C231.587 60.9185 240.917 67.5599 241.539 76.5092L241.8 89.7765C242.002 100.037 234.153 107.819 223.915 108.531Z" fill="#EB6459"/>
<path d="M216.805 89.0276L216.309 93.1223L218.425 93.2003" stroke="#0A050B" stroke-width="0.00165333" stroke-miterlimit="2" stroke-linecap="round" stroke-linejoin="round"/>
<path d="M225.234 79.0498C225.234 79.0498 220.506 78.6618 220.459 80.5865C220.459 80.5865 220.463 81.8892 224.587 82.1478C228.712 82.4058 229.784 82.1038 230.161 80.8798C230.538 79.6558 227.451 79.0618 225.234 79.0498Z" fill="#0A050B"/>
<path d="M211.683 81.8434C211.683 81.8434 215.264 81.5554 215.601 83.2854C215.601 83.2854 215.802 84.4561 212.665 84.6361C209.528 84.8154 208.558 84.4261 208.498 83.4361C208.428 82.2561 209.977 81.8261 211.683 81.8434Z" fill="#0A050B"/>
<path d="M213.719 87.4705C213.746 88.3058 213.092 89.0051 212.256 89.0325C211.421 89.0598 210.722 88.4045 210.694 87.5691C210.667 86.7338 211.322 86.0345 212.157 86.0071C212.993 85.9805 213.692 86.6351 213.719 87.4705Z" fill="#0A050B"/>
<path d="M226.415 87.0426C226.442 87.878 225.787 88.5773 224.952 88.6046C224.117 88.632 223.417 87.9773 223.389 87.142C223.362 86.3066 224.017 85.6073 224.853 85.58C225.688 85.5526 226.387 86.208 226.415 87.0426Z" fill="#0A050B"/>
<path d="M221.978 96.0552C221.978 96.0552 219.742 95.0352 217.041 97.3659" stroke="#0A050B" stroke-width="0.00165333" stroke-miterlimit="2" stroke-linecap="round" stroke-linejoin="round"/>
<path d="M227.862 58.7213C225.729 58.6073 223.578 58.8413 221.513 59.3919C216.388 60.7559 207.184 64.5519 205.606 74.3959C205.081 76.9906 205.445 77.8606 205.445 77.8606C205.445 77.8606 222.635 78.5346 232.797 73.7366C234.26 79.9293 235.612 83.7606 241.729 89.7913L247.159 81.6286L253.273 87.112C253.312 87.3193 253.305 60.0733 227.862 58.7213Z" fill="#0A050B"/>
<path d="M250.608 89.9457C250.864 93.6151 248.096 96.7964 244.427 97.0511C240.758 97.3071 237.576 94.5391 237.321 90.8697C237.066 87.2011 239.834 84.0197 243.502 83.7644C247.172 83.5091 250.353 86.2764 250.608 89.9457Z" fill="#EB6459"/>
<path d="M241.46 92.3053C241.46 92.3053 241.125 87.4886 245.784 87.9266" stroke="#0A050B" stroke-width="0.00165333" stroke-miterlimit="2" stroke-linecap="round" stroke-linejoin="round"/>
</svg>
