<svg width="40" height="40" viewBox="0 0 40 40" fill="none" xmlns="http://www.w3.org/2000/svg">
<path d="M40 0H0V40H40V0Z" fill="white"/>
<path d="M33.5579 5.01489H32.1308H30.7036V6.44204V7.86919V9.29633H32.1308H33.5579H34.9851V7.86919V6.44204V5.01489H33.5579Z" fill="#FF6600"/>
<path d="M7.86919 9.29633H9.29633V7.86919V6.44204V5.01489H7.86919H6.44204H5.01489V6.44204V7.86919V9.29633H6.44204H7.86919Z" fill="#FF6600"/>
<path d="M7.86919 34.985H9.29633V33.5578V32.1307V30.7036H7.86919H6.44204H5.01489V32.1307V33.5578V34.985H6.44204H7.86919Z" fill="#FF6600"/>
<path d="M16.432 2.16052H15.005V3.58748H16.432V2.16052Z" fill="#003399"/>
<path d="M36.4122 2.16064H34.985H33.5579H32.1307H30.7036H29.2764H27.8491V3.58779V5.01494V6.44209V7.86924V9.29639V10.7235V12.1507H29.2764H30.7036H32.1307H33.5579H34.985H36.4122H37.8395V10.7235V9.29639V7.86924V6.44209V5.01494V3.58779V2.16064H36.4122ZM36.4122 5.01494V6.44209V7.86924V9.29639V10.7235H34.985H33.5579H32.1307H30.7036H29.2764V9.29639V7.86924V6.44209V5.01494V3.58779H30.7036H32.1307H33.5579H34.985H36.4122V5.01494Z" fill="#003399"/>
<path d="M22.1408 7.86916H20.7137V9.29631V10.7235H22.1408V12.1506H20.7137V10.7235H19.2865V12.1506V13.5778H20.7137V15.0049V16.432H22.1408V15.0049V13.5778H23.5679V12.1506V10.7235H24.9952V12.1506H26.4221V10.7235V9.29631H24.9952V7.86916H23.5679V6.44202H22.1408V7.86916Z" fill="#003399"/>
<path d="M16.4321 9.29639H17.8593V7.86924H19.2865V6.44209H17.8593V5.01494H19.2865V6.44209H20.7137V5.01494H22.1408H23.5679V6.44209H24.9952V5.01494H26.4221V3.58779H24.9952V2.16064H23.5679H22.1408H20.7137H19.2865V3.58779H17.8593H16.4321V5.01494H15.0049H13.5779V6.44209H15.0049V7.86924H16.4321V9.29639H15.0049V10.7235H16.4321V9.29639Z" fill="#003399"/>
<path d="M2.15979 2.15991V12.1526H12.1526V2.15991H2.15979ZM10.727 10.72H3.58528V3.5854H10.727V10.72Z" fill="#003399"/>
<path d="M9.29426 22.1381V23.5708H6.44348V24.9963H3.58528V23.5708H5.01799V22.1381H3.58528V20.7126H2.15979V13.5781H6.44348V16.429H3.58528V19.2871H6.44348V22.1381H9.29426Z" fill="#003399"/>
<path d="M15.0049 16.4321V15.0049V13.5778H16.4321V15.0049V16.4321H17.8593H19.2865V15.0049V13.5778H17.8593V12.1506V10.7234H16.4321V12.1506H15.0049V10.7234H13.5779V12.1506V13.5778H12.1506H10.7237H9.29641H7.86926V15.0049H9.29641H10.7237H12.1506V16.4321H13.5779H15.0049Z" fill="#003399"/>
<path d="M30.7037 16.4321V17.8593H32.1308H33.5579V16.4321H32.1308H30.7037Z" fill="#003399"/>
<path d="M34.985 15.0049V13.5778H33.558V15.0049V16.4321H34.985V17.8592V19.2864H36.4123V17.8592H37.8394V16.4321V15.0049H36.4123H34.985Z" fill="#003399"/>
<path d="M16.432 16.432H15.005V17.859H16.432V16.432Z" fill="#003399"/>
<path d="M29.2765 15.0049V13.5778H27.8493H26.4221H24.9951V15.0049H23.5679V16.4321H24.9951H26.4221H27.8493V17.8592H29.2765V16.4321V15.0049Z" fill="#003399"/>
<path d="M30.702 17.8594H29.275V19.2863H30.702V17.8594Z" fill="#003399"/>
<path d="M19.2865 17.8594H17.8595V19.2863H19.2865V17.8594Z" fill="#003399"/>
<path d="M13.5778 20.7136V19.2864H15.0049V17.8593H13.5778H12.1506V19.2864H10.7237V17.8593H12.1506V16.4321H10.7237H9.29641H7.86926V17.8593V19.2864H9.29641V20.7136V22.1407H10.7237V20.7136H12.1506V22.1407H10.7237V23.5679H12.1506V24.995H10.7237H9.29641V26.4222H10.7237H12.1506H13.5778V24.995V23.5679H15.0049V22.1407H13.5778V20.7136Z" fill="#003399"/>
<path d="M16.432 20.715H15.005V22.1419H16.432V20.715Z" fill="#003399"/>
<path d="M33.5579 19.2864H32.1307V20.7135V22.1407H33.5579V20.7135V19.2864Z" fill="#003399"/>
<path d="M34.985 20.7135V22.1406H33.558V23.5678H34.985H36.4123V24.9949V26.4221H37.8394V24.9949V23.5678V22.1406V20.7135H36.4123H34.985Z" fill="#003399"/>
<path d="M3.58748 22.14H2.16052V23.5669H3.58748V22.14Z" fill="#003399"/>
<path d="M3.58748 24.9949H2.16052V26.4219H3.58748V24.9949Z" fill="#003399"/>
<path d="M7.86897 24.9949H6.44202V26.4219H7.86897V24.9949Z" fill="#003399"/>
<path d="M2.15979 27.8472V37.8399H12.1526V27.8472H2.15979ZM10.727 36.4145H3.58528V29.2799H10.727V36.4145Z" fill="#003399"/>
<path d="M29.2769 27.8499H27.85V29.2769H29.2769V27.8499Z" fill="#003399"/>
<path d="M34.985 27.8493H33.558V29.2765H34.985H36.4123V30.7036H34.985V32.1308H36.4123H37.8394V30.7036V29.2765V27.8493H36.4123H34.985Z" fill="#003399"/>
<path d="M19.2865 30.7036V29.2764H17.8594H16.4321V30.7036H17.8594H19.2865Z" fill="#003399"/>
<path d="M16.429 30.7054V32.1308H13.5781V26.4217H15.0035V30.7054H16.429Z" fill="#003399"/>
<path d="M24.997 32.1299H23.5701V33.5569H24.997V32.1299Z" fill="#003399"/>
<path d="M37.8369 33.5599H36.4099V34.9868H37.8369V33.5599Z" fill="#003399"/>
<path d="M32.1309 32.1308V27.8471H33.5563V24.9963H29.2798V23.5708H27.8471V22.1381H29.2798V23.5708H30.7052V20.7126H29.2798V19.2871H26.4217V17.8617H20.7127V19.2871H19.2871V20.7126H17.8617V22.1381H16.429V26.4216H17.8617V27.8471H19.2871V24.9963H17.8617V23.5708H19.2871V24.9963H20.7127V30.7053H19.2871V32.1308H16.429V36.4145H15.0036V33.5563H13.5782V37.8399H20.7128V36.4145H22.1382V37.8399H23.5709V36.4145H24.9963V37.8399H26.4217V33.5563H24.9963V34.9817H20.7127V33.5563H22.1381V30.7053H23.5708V27.8471H22.1381V23.5708H23.5708V20.7126H22.1381V19.2871H23.5708V20.7126H26.4217V23.5708H23.5708V24.9963H24.9962V26.4216H23.5708V27.8471H24.9962V32.1308H29.2798V36.4145H27.8471V37.8399H30.7052V36.4145H32.1308V34.9818H34.9817V32.1308H32.1309ZM19.2871 36.4145H17.8617V34.9818H19.2871V36.4145ZM30.7053 30.7054H26.4217V26.4217H30.7053V30.7054Z" fill="#003399"/>
<path d="M34.985 37.8393H36.4122H37.8394V36.4121H36.4122V34.985H34.985V36.4121V37.8393Z" fill="#003399"/>
</svg>
