<svg width="177" height="29" viewBox="0 0 177 29" fill="none" xmlns="http://www.w3.org/2000/svg">
<path d="M47.368 23.144C46.12 23.144 44.92 22.944 43.768 22.544C42.632 22.144 41.752 21.616 41.128 20.96L41.824 19.592C42.432 20.2 43.24 20.696 44.248 21.08C45.256 21.448 46.296 21.632 47.368 21.632C48.872 21.632 50 21.36 50.752 20.816C51.504 20.256 51.88 19.536 51.88 18.656C51.88 17.984 51.672 17.448 51.256 17.048C50.856 16.648 50.36 16.344 49.768 16.136C49.176 15.912 48.352 15.672 47.296 15.416C46.032 15.096 45.024 14.792 44.272 14.504C43.52 14.2 42.872 13.744 42.328 13.136C41.8 12.528 41.536 11.704 41.536 10.664C41.536 9.816 41.76 9.048 42.208 8.36C42.656 7.656 43.344 7.096 44.272 6.68C45.2 6.264 46.352 6.056 47.728 6.056C48.688 6.056 49.624 6.192 50.536 6.464C51.464 6.72 52.264 7.08 52.936 7.544L52.336 8.96C51.632 8.496 50.88 8.152 50.08 7.928C49.28 7.688 48.496 7.568 47.728 7.568C46.256 7.568 45.144 7.856 44.392 8.432C43.656 8.992 43.288 9.72 43.288 10.616C43.288 11.288 43.488 11.832 43.888 12.248C44.304 12.648 44.816 12.96 45.424 13.184C46.048 13.392 46.88 13.624 47.92 13.88C49.152 14.184 50.144 14.488 50.896 14.792C51.664 15.08 52.312 15.528 52.84 16.136C53.368 16.728 53.632 17.536 53.632 18.56C53.632 19.408 53.4 20.184 52.936 20.888C52.488 21.576 51.792 22.128 50.848 22.544C49.904 22.944 48.744 23.144 47.368 23.144ZM68.6616 10.376V23H67.0296V20.504C66.5176 21.352 65.8376 22 64.9896 22.448C64.1576 22.896 63.2136 23.12 62.1576 23.12C60.9736 23.12 59.9016 22.848 58.9416 22.304C57.9816 21.76 57.2296 21 56.6856 20.024C56.1416 19.048 55.8696 17.936 55.8696 16.688C55.8696 15.44 56.1416 14.328 56.6856 13.352C57.2296 12.376 57.9816 11.624 58.9416 11.096C59.9016 10.552 60.9736 10.28 62.1576 10.28C63.1816 10.28 64.1016 10.496 64.9176 10.928C65.7496 11.344 66.4296 11.96 66.9576 12.776V10.376H68.6616ZM62.3016 21.608C63.1816 21.608 63.9736 21.408 64.6776 21.008C65.3976 20.592 65.9576 20.008 66.3576 19.256C66.7736 18.504 66.9816 17.648 66.9816 16.688C66.9816 15.728 66.7736 14.872 66.3576 14.12C65.9576 13.368 65.3976 12.792 64.6776 12.392C63.9736 11.976 63.1816 11.768 62.3016 11.768C61.4056 11.768 60.5976 11.976 59.8776 12.392C59.1736 12.792 58.6136 13.368 58.1976 14.12C57.7976 14.872 57.5976 15.728 57.5976 16.688C57.5976 17.648 57.7976 18.504 58.1976 19.256C58.6136 20.008 59.1736 20.592 59.8776 21.008C60.5976 21.408 61.4056 21.608 62.3016 21.608ZM85.0953 10.376V21.464C85.0953 23.608 84.5673 25.192 83.5113 26.216C82.4713 27.256 80.8953 27.776 78.7833 27.776C77.6153 27.776 76.5033 27.6 75.4473 27.248C74.4073 26.912 73.5593 26.44 72.9033 25.832L73.7673 24.536C74.3753 25.08 75.1113 25.504 75.9753 25.808C76.8553 26.112 77.7753 26.264 78.7353 26.264C80.3353 26.264 81.5113 25.888 82.2633 25.136C83.0153 24.4 83.3913 23.248 83.3913 21.68V20.072C82.8633 20.872 82.1673 21.48 81.3033 21.896C80.4553 22.312 79.5113 22.52 78.4713 22.52C77.2873 22.52 76.2073 22.264 75.2313 21.752C74.2713 21.224 73.5113 20.496 72.9513 19.568C72.4073 18.624 72.1353 17.56 72.1353 16.376C72.1353 15.192 72.4073 14.136 72.9513 13.208C73.5113 12.28 74.2713 11.56 75.2313 11.048C76.1913 10.536 77.2713 10.28 78.4713 10.28C79.5433 10.28 80.5113 10.496 81.3753 10.928C82.2393 11.36 82.9353 11.984 83.4633 12.8V10.376H85.0953ZM78.6393 21.008C79.5513 21.008 80.3753 20.816 81.1113 20.432C81.8473 20.032 82.4153 19.48 82.8153 18.776C83.2313 18.072 83.4393 17.272 83.4393 16.376C83.4393 15.48 83.2313 14.688 82.8153 14C82.4153 13.296 81.8473 12.752 81.1113 12.368C80.3913 11.968 79.5673 11.768 78.6393 11.768C77.7273 11.768 76.9033 11.96 76.1673 12.344C75.4473 12.728 74.8793 13.272 74.4633 13.976C74.0633 14.68 73.8633 15.48 73.8633 16.376C73.8633 17.272 74.0633 18.072 74.4633 18.776C74.8793 19.48 75.4473 20.032 76.1673 20.432C76.9033 20.816 77.7273 21.008 78.6393 21.008ZM95.2604 21.608C96.0444 21.608 96.7644 21.472 97.4204 21.2C98.0924 20.912 98.6604 20.496 99.1244 19.952L100.084 21.056C99.5244 21.728 98.8284 22.24 97.9964 22.592C97.1644 22.944 96.2444 23.12 95.2364 23.12C93.9404 23.12 92.7884 22.848 91.7804 22.304C90.7724 21.744 89.9884 20.976 89.4284 20C88.8684 19.024 88.5884 17.92 88.5884 16.688C88.5884 15.456 88.8524 14.352 89.3804 13.376C89.9244 12.4 90.6684 11.64 91.6124 11.096C92.5564 10.552 93.6284 10.28 94.8284 10.28C95.9484 10.28 96.9564 10.536 97.8524 11.048C98.7644 11.56 99.4844 12.272 100.012 13.184C100.556 14.096 100.844 15.136 100.876 16.304L90.5084 18.32C90.8284 19.344 91.4044 20.152 92.2364 20.744C93.0844 21.32 94.0924 21.608 95.2604 21.608ZM94.8284 11.744C93.9484 11.744 93.1564 11.952 92.4524 12.368C91.7644 12.768 91.2204 13.336 90.8204 14.072C90.4364 14.792 90.2444 15.624 90.2444 16.568C90.2444 16.808 90.2524 16.984 90.2684 17.096L99.1724 15.368C98.9804 14.312 98.4924 13.448 97.7084 12.776C96.9244 12.088 95.9644 11.744 94.8284 11.744Z" fill="#003399"/>
<path d="M112.001 23.288C110.289 23.288 108.737 22.92 107.345 22.184C105.969 21.432 104.881 20.4 104.081 19.088C103.297 17.76 102.905 16.264 102.905 14.6C102.905 12.936 103.297 11.448 104.081 10.136C104.881 8.808 105.969 7.776 107.345 7.04C108.737 6.288 110.297 5.912 112.025 5.912C113.481 5.912 114.793 6.168 115.961 6.68C117.145 7.192 118.137 7.928 118.937 8.888L116.441 11.192C115.305 9.88 113.897 9.224 112.217 9.224C111.177 9.224 110.249 9.456 109.433 9.92C108.617 10.368 107.977 11 107.513 11.816C107.065 12.632 106.841 13.56 106.841 14.6C106.841 15.64 107.065 16.568 107.513 17.384C107.977 18.2 108.617 18.84 109.433 19.304C110.249 19.752 111.177 19.976 112.217 19.976C113.897 19.976 115.305 19.312 116.441 17.984L118.937 20.288C118.137 21.264 117.145 22.008 115.961 22.52C114.777 23.032 113.457 23.288 112.001 23.288ZM125.93 23.192C124.474 23.192 123.338 22.808 122.522 22.04C121.706 21.256 121.298 20.152 121.298 18.728V5.192H125.042V18.512C125.042 19.056 125.178 19.48 125.45 19.784C125.738 20.072 126.138 20.216 126.65 20.216C126.842 20.216 127.034 20.192 127.226 20.144C127.434 20.096 127.594 20.04 127.706 19.976L127.874 22.88C127.25 23.088 126.602 23.192 125.93 23.192ZM135.622 23.192C134.262 23.192 133.038 22.912 131.95 22.352C130.878 21.776 130.038 20.984 129.43 19.976C128.822 18.968 128.518 17.824 128.518 16.544C128.518 15.264 128.822 14.12 129.43 13.112C130.038 12.104 130.878 11.32 131.95 10.76C133.038 10.184 134.262 9.896 135.622 9.896C136.982 9.896 138.198 10.184 139.27 10.76C140.342 11.32 141.182 12.104 141.79 13.112C142.398 14.12 142.702 15.264 142.702 16.544C142.702 17.824 142.398 18.968 141.79 19.976C141.182 20.984 140.342 21.776 139.27 22.352C138.198 22.912 136.982 23.192 135.622 23.192ZM135.622 20.12C136.582 20.12 137.366 19.8 137.974 19.16C138.598 18.504 138.91 17.632 138.91 16.544C138.91 15.456 138.598 14.592 137.974 13.952C137.366 13.296 136.582 12.968 135.622 12.968C134.662 12.968 133.87 13.296 133.246 13.952C132.622 14.592 132.31 15.456 132.31 16.544C132.31 17.632 132.622 18.504 133.246 19.16C133.87 19.8 134.662 20.12 135.622 20.12ZM158.213 10.088V23H154.661V21.464C154.165 22.024 153.573 22.456 152.885 22.76C152.197 23.048 151.453 23.192 150.653 23.192C148.957 23.192 147.613 22.704 146.621 21.728C145.629 20.752 145.133 19.304 145.133 17.384V10.088H148.877V16.832C148.877 18.912 149.749 19.952 151.493 19.952C152.389 19.952 153.109 19.664 153.653 19.088C154.197 18.496 154.469 17.624 154.469 16.472V10.088H158.213ZM174.833 5.192V23H171.257V21.512C170.329 22.632 168.985 23.192 167.225 23.192C166.009 23.192 164.905 22.92 163.913 22.376C162.937 21.832 162.169 21.056 161.609 20.048C161.049 19.04 160.769 17.872 160.769 16.544C160.769 15.216 161.049 14.048 161.609 13.04C162.169 12.032 162.937 11.256 163.913 10.712C164.905 10.168 166.009 9.896 167.225 9.896C168.873 9.896 170.161 10.416 171.089 11.456V5.192H174.833ZM167.873 20.12C168.817 20.12 169.601 19.8 170.225 19.16C170.849 18.504 171.161 17.632 171.161 16.544C171.161 15.456 170.849 14.592 170.225 13.952C169.601 13.296 168.817 12.968 167.873 12.968C166.913 12.968 166.121 13.296 165.497 13.952C164.873 14.592 164.561 15.456 164.561 16.544C164.561 17.632 164.873 18.504 165.497 19.16C166.121 19.8 166.913 20.12 167.873 20.12Z" fill="#FF6600"/>
<path d="M8.52846 2.61526C7.67507 2.62789 7.01808 2.67613 6.40934 2.77032C4.31664 3.09307 3.1405 3.912 2.84417 5.25238C2.83383 5.29832 2.19523 9.42744 1.42339 14.4295C0.652693 19.4315 0.0163837 23.5549 0.0106408 23.5928C-0.0042906 23.6881 -0.00314203 23.9684 0.0117894 24.0706C0.0738124 24.4772 0.270218 24.8459 0.604453 25.179C1.19367 25.767 2.23543 26.2069 3.26799 26.3046C3.42994 26.3195 4.45906 26.3207 11.8536 26.3184L20.2554 26.3149L20.4334 26.2885C21.0732 26.1955 21.636 26.0197 22.3194 25.7004C23.0143 25.3742 23.4794 25.0446 23.8194 24.638C24.0606 24.3497 24.2352 23.9959 24.303 23.6537C24.3213 23.5664 24.8324 20.1528 24.8324 20.123C24.8324 20.1207 23.391 20.1184 21.6302 20.1184H18.428L18.2844 20.966L18.1409 21.8125L12.4589 21.816C7.4063 21.8183 6.77688 21.816 6.77688 21.801C6.77688 21.7918 7.26273 18.5241 7.85654 14.5386C8.45035 10.5542 8.94194 7.25434 8.94884 7.20496L8.96147 7.11652H14.663H20.3645L20.3576 7.14753C20.3542 7.1659 20.2933 7.53574 20.2221 7.9722L20.0923 8.76472L20.7883 8.77161C21.1708 8.77505 22.6272 8.77965 24.025 8.7808L26.5645 8.78195L26.5714 8.74979C26.5886 8.66364 26.9332 6.35616 27.0205 5.74397C27.1089 5.1203 27.1112 5.09847 27.1032 4.93538C27.0687 4.2359 26.5921 3.65357 25.6881 3.20218C24.9955 2.85646 24.2421 2.65661 23.4714 2.61411C23.2336 2.60147 9.36232 2.60147 8.52846 2.61526Z" fill="#FF6600"/>
<path d="M20.2418 10.2797C19.5584 10.3234 18.8876 10.5829 18.3409 11.0159C18.1881 11.1354 17.9136 11.4111 17.7919 11.565C17.3497 12.1232 17.1016 12.7698 17.0545 13.4854C17.0395 13.7116 17.0464 13.784 17.0958 13.8908C17.1533 14.016 17.2842 14.1194 17.4243 14.1493C17.4714 14.1584 18.6786 14.1607 22.3 14.1584C26.8208 14.155 27.1206 14.1527 27.2446 14.1343C27.9602 14.0252 28.5712 13.7197 29.0663 13.2258C29.6359 12.6561 29.9575 11.9233 29.9966 11.109C30.0035 10.9826 30 10.931 29.9851 10.8529C29.93 10.5806 29.7405 10.3762 29.4671 10.2935C29.4016 10.274 29.1903 10.2728 24.89 10.2717C22.4103 10.2705 20.3187 10.274 20.2418 10.2797Z" fill="#003399"/>
<path d="M17.5962 15.6734C16.5131 15.732 15.5816 16.4475 15.2404 17.4835C15.1313 17.8143 15.0819 18.2634 15.1382 18.4139C15.1715 18.5012 15.2289 18.5632 15.3197 18.608L15.3966 18.6459H19.095C22.968 18.6459 22.844 18.6471 23.0863 18.5988C23.7376 18.4667 24.3188 18.059 24.676 17.4824C24.8884 17.1378 25.0067 16.7531 25.0332 16.3143C25.0458 16.1099 24.9964 15.9571 24.877 15.8353C24.7989 15.7561 24.6794 15.6952 24.568 15.6768C24.5175 15.67 23.3735 15.6665 21.0763 15.6677C19.1973 15.6688 17.6306 15.6711 17.5962 15.6734Z" fill="#003399"/>
</svg>
