<svg width="40" height="40" viewBox="0 0 40 40" fill="none" xmlns="http://www.w3.org/2000/svg">
<g clip-path="url(#clip0)">
<path d="M36 20V14.6667C36 12.4575 34.2091 10.6667 32 10.6667H22.2397C21.7373 10.6667 21.3327 11.0778 21.3333 11.5801C21.3341 12.1915 21.4315 12.7803 21.6094 13.3334H2.71943C1.22521 13.3334 -0.0271312 14.5562 0.00044697 16.0502C0.0271657 17.4991 1.21138 18.6668 2.66662 18.6668H5.33334V34.6668H29.3333H32C34.2094 34.6668 36 32.8761 36 30.6668H38.8281C39.4753 30.6668 40 30.1421 40 29.4949V21.1719C40 20.5247 39.4753 20 38.8281 20H36Z" fill="#FFDCC8"/>
<path d="M25.7895 0H8.87728C6.92314 0 5.33337 1.58977 5.33337 3.54383V36.4561C5.33337 38.4102 6.92322 39.9999 8.87728 39.9999H25.7895C27.7435 39.9999 29.3334 38.4102 29.3334 36.4561V3.54383C29.3334 1.58977 27.7435 0 25.7895 0V0Z" fill="#0240BB"/>
<path d="M29.3334 36.4562V3.54383C29.3334 1.58977 27.7435 0 25.7895 0H17.3334V40H25.7895C27.7435 40 29.3334 38.4102 29.3334 36.4562Z" fill="#003399"/>
<path d="M25.651 2.34375H24.3125V3.68227C24.3125 5.71594 22.6639 7.36453 20.6302 7.36453H14.0365C12.0028 7.36453 10.3542 5.71594 10.3542 3.68227V2.34375H9.01572C8.27767 2.34375 7.67712 2.94422 7.67712 3.68227V36.3177C7.67712 37.0557 8.27767 37.6562 9.01572 37.6562H25.651C26.3891 37.6562 26.9896 37.0557 26.9896 36.3177V3.68227C26.9896 2.94422 26.3891 2.34375 25.651 2.34375Z" fill="#5FF9FE"/>
<path d="M26.9896 36.3177V3.68227C26.9896 2.94422 26.3891 2.34375 25.651 2.34375H24.3125V3.68227C24.3125 5.71594 22.6639 7.36453 20.6302 7.36453H17.3334V37.6562H25.651C26.3891 37.6562 26.9896 37.0558 26.9896 36.3177Z" fill="#00DDE7"/>
<path d="M5.33339 34.6666C6.80613 34.6666 8.00003 33.4727 8.00003 32C8.00003 30.5272 6.80613 29.3333 5.33339 29.3333C3.86064 29.3333 2.66675 30.5272 2.66675 32C2.66675 33.4727 3.86064 34.6666 5.33339 34.6666Z" fill="#FFC5BB"/>
<path d="M8.66667 24C10.1387 24 11.3334 22.8053 11.3334 21.3334C11.3334 19.8614 10.1387 18.6667 8.66667 18.6667H3.33339C1.86136 18.6667 0.666748 19.8614 0.666748 21.3334C0.666748 22.8053 1.86136 24 3.33339 24H4.66675C3.19472 24 2.00011 25.1947 2.00011 26.6667C2.00011 28.1386 3.1948 29.3333 4.66675 29.3333H8.66675C10.1388 29.3333 11.3335 28.1386 11.3335 26.6667C11.3335 25.1947 10.1387 24 8.66667 24Z" fill="#FFC5BB"/>
<path d="M19.8437 34.9791H14.8229C14.1757 34.9791 13.651 34.4544 13.651 33.8073C13.651 33.1601 14.1757 32.6354 14.8229 32.6354H19.8437C20.4909 32.6354 21.0156 33.1601 21.0156 33.8073C21.0156 34.4544 20.4909 34.9791 19.8437 34.9791Z" fill="#00DDE7"/>
<path d="M21.0156 33.8073C21.0156 33.1601 20.491 32.6354 19.8438 32.6354H17.3334V34.9791H19.8438C20.491 34.9791 21.0156 34.4545 21.0156 33.8073Z" fill="#00BDCD"/>
<path d="M36 18.2813V14.6667C36 12.4575 34.2092 10.6667 32 10.6667H22.2397C21.7393 10.6667 21.3334 11.0726 21.3334 11.5731C21.3334 14.7493 23.9174 17.3334 27.0937 17.3334H29.3333V34.6668H32C34.2094 34.6668 36 32.8761 36 30.6668H38.8281C39.4753 30.6668 40 30.1421 40 29.4949V19.4532C40 18.806 39.4753 18.2813 38.8281 18.2813H36Z" fill="#FFC5BB"/>
<path d="M8.66664 24.0001H4.66664C3.19461 24.0001 2 25.1947 2 26.6667C2 28.1387 3.19469 29.3333 4.66664 29.3333H8.66664C10.1387 29.3333 11.3334 28.1387 11.3334 26.6667C11.3334 25.1947 10.1387 24.0001 8.66664 24.0001Z" fill="#FFADAD"/>
<path d="M29.3333 24.0001V34.6667H31.9999C34.2093 34.6667 35.9999 32.876 35.9999 30.6667H38.828C39.4752 30.6667 39.9999 30.142 39.9999 29.4948V24.0001H29.3333Z" fill="#FFADAD"/>
</g>
<defs>
<clipPath id="clip0">
<rect width="40" height="40" fill="white"/>
</clipPath>
</defs>
</svg>
