<svg width="37" height="46" viewBox="0 0 37 46" fill="none" xmlns="http://www.w3.org/2000/svg">
<g id="ussd-ic">
<path id="Vector" d="M33.3541 21.5015L26.7723 15.0703V3.99421C26.7723 1.79182 24.9386 3.05176e-05 22.6846 3.05176e-05L4.88015 3.05176e-05C2.62617 3.05176e-05 0.792404 1.79182 0.792404 3.99421L0.792404 41.4508C0.792404 43.6532 2.62617 45.445 4.88015 45.445H32.6768C33.326 45.445 33.8849 44.9976 34.0127 44.3758L36.5519 32.0251C37.3451 28.1671 36.1497 24.2331 33.3541 21.5015V21.5015ZM4.88015 2.66282L22.6846 2.66282C23.4359 2.66282 24.0472 3.26008 24.0472 3.99421V21.1673C22.3759 19.5567 19.691 19.5656 18.0311 21.1874C16.3677 22.81 16.3597 25.4441 18.02 27.0774L23.2392 32.3793C22.1077 33.2044 20.642 34.6445 19.5893 37.0128H3.51757L3.51757 3.99421C3.51757 3.26008 4.12873 2.66282 4.88015 2.66282ZM3.51757 41.4508V39.6756H18.7085C18.4924 40.6092 18.3397 41.6414 18.2723 42.7822H4.88015C4.12873 42.7822 3.51757 42.1849 3.51757 41.4508V41.4508ZM33.8802 31.5006L31.5608 42.7822C29.3697 42.7822 23.2535 42.7822 21.0039 42.7822C21.2004 39.9542 22.0334 37.5842 23.4425 35.8736C24.6107 34.4553 25.8002 33.9468 25.8949 33.9079C26.7865 33.5961 27.1052 32.4653 26.3918 31.7406C19.9491 25.1959 19.9689 25.2158 19.9573 25.2046C19.3589 24.6198 19.3494 23.6641 19.9573 23.0711C20.558 22.4842 21.5345 22.4826 22.1372 23.0667C25.0178 25.9457 23.617 24.5642 28.658 29.4897C29.1901 30.0097 30.0529 30.0097 30.585 29.4897C31.1171 28.9698 31.1171 28.1268 30.585 27.6068L26.7723 23.8815V18.8361L31.4272 23.3844C33.5762 25.4842 34.4934 28.5184 33.8802 31.5006V31.5006Z" fill="#7690C3"/>
</g>
</svg>
